<svg viewBox="0 0 24 24" xmlns="http://www.w3.org/2000/svg" fill="#00457C" aria-hidden="true">
  <path d="M7.076 21.337H2.47L5.838 4.18h3.35c2.027 0 3.44.465 4.25 1.387.81.923 1.12 2.24.93 3.95-.15 1.34-.61 2.33-1.38 2.97-.77.64-1.76.96-2.97.96H8.39l-.55 3.288h-.95z"/>
  <path d="M23.105 16.076c-.184 1.264-.697 2.24-1.538 2.93-.84.688-1.967 1.032-3.38 1.032H15.22l-.693 4.134H9.987L14.355 4.18h4.596c1.343 0 2.384.32 3.124.96.74.64 1.168 1.493 1.284 2.56.06.53.06 1.023 0 1.476-.06.453-.166.893-.318 1.32-.152.427-.366.84-.64 1.24-.274.4-.614.76-1.02 1.08-.407.32-.884.58-1.43.78-.547.2-1.16.34-1.84.42-.68.08-1.42.1-2.22.06-.26-.02-.54-.05-.84-.1-.3-.05-.58-.12-.84-.2-.26-.08-.5-.18-.72-.3-.22-.12-.4-.26-.54-.42-.14-.16-.24-.34-.3-.54-.06-.2-.08-.42-.06-.66.02-.24.1-.48.22-.72.12-.24.3-.46.54-.66.24-.2.54-.36.9-.48.36-.12.78-.2 1.26-.24.48-.04 1-.04 1.56 0 .56.04 1.1.12 1.62.24.52.12.98.28 1.38.48.4.2.72.44.96.72.24.28.4.6.48.96.08.36.1.76.06 1.2-.04.44-.14.9-.3 1.38-.16.48-.38.96-.66 1.44-.28.48-.62.92-1.02 1.32-.4.4-.86.74-1.38 1.02-.52.28-1.08.5-1.68.66-.6.16-1.22.26-1.86.3-.64.04-1.26.02-1.86-.06z"/>
</svg>
